<svg height="512" viewBox="0 0 512 512" width="512" xmlns="http://www.w3.org/2000/svg"><g><g><path d="m496 40v24h-480v-24a24.006 24.006 0 0 1 24-24h432a24.006 24.006 0 0 1 24 24z" fill="#57565c"/><path d="m496 64v408a24.006 24.006 0 0 1 -24 24h-432a24.006 24.006 0 0 1 -24-24v-408z" fill="#83d8f4"/><path d="m328 136v104h-144v-104a24.006 24.006 0 0 1 24-24h96a24.006 24.006 0 0 1 24 24z" fill="#57565c"/><path d="m184 400h144v48h-144z" fill="#57565c"/><path d="m184 240h144v160h-144z" fill="#e0e0e2"/><circle cx="256" cy="184" fill="#ff9811" r="24"/><path d="m184 184v104h-144v-104a24.006 24.006 0 0 1 24-24h96a24.006 24.006 0 0 1 24 24z" fill="#57565c"/><path d="m184 288v160h-120a24.006 24.006 0 0 1 -24-24v-136z" fill="#e0e0e2"/><circle cx="112" cy="232" fill="#ff9811" r="24"/><path d="m472 184v104h-144v-104a24.006 24.006 0 0 1 24-24h96a24.006 24.006 0 0 1 24 24z" fill="#57565c"/><path d="m472 288v136a24.006 24.006 0 0 1 -24 24h-120v-160z" fill="#e0e0e2"/><circle cx="400" cy="232" fill="#ff9811" r="24"/><g fill="#e0e0e2"><circle cx="39" cy="40" r="8"/><circle cx="64" cy="40" r="8"/><circle cx="88" cy="40" r="8"/></g></g><g><path d="m256 216a32 32 0 1 0 -32-32 32.036 32.036 0 0 0 32 32zm0-48a16 16 0 1 1 -16 16 16.019 16.019 0 0 1 16-16z"/><path d="m208 144h8a8 8 0 0 0 0-16h-8a8 8 0 0 0 0 16z"/><path d="m296 144h8a8 8 0 0 0 0-16h-8a8 8 0 0 0 0 16z"/><path d="m216 416h-8a8 8 0 0 0 0 16h8a8 8 0 0 0 0-16z"/><path d="m304 416h-8a8 8 0 0 0 0 16h8a8 8 0 0 0 0-16z"/><path d="m208 280h96a8 8 0 0 0 0-16h-96a8 8 0 0 0 0 16z"/><path d="m112 264a32 32 0 1 0 -32-32 32.036 32.036 0 0 0 32 32zm0-48a16 16 0 1 1 -16 16 16.019 16.019 0 0 1 16-16z"/><path d="m64 192h8a8 8 0 0 0 0-16h-8a8 8 0 0 0 0 16z"/><path d="m152 192h8a8 8 0 0 0 0-16h-8a8 8 0 0 0 0 16z"/><path d="m160 312h-96a8 8 0 0 0 0 16h96a8 8 0 0 0 0-16z"/><path d="m400 264a32 32 0 1 0 -32-32 32.036 32.036 0 0 0 32 32zm0-48a16 16 0 1 1 -16 16 16.019 16.019 0 0 1 16-16z"/><path d="m352 192h8a8 8 0 0 0 0-16h-8a8 8 0 0 0 0 16z"/><path d="m448 312h-96a8 8 0 0 0 0 16h96a8 8 0 0 0 0-16z"/><path d="m304 288h-96a8 8 0 0 0 0 16h96a8 8 0 0 0 0-16z"/><path d="m160 336h-96a8 8 0 0 0 0 16h96a8 8 0 0 0 0-16z"/><path d="m448 336h-96a8 8 0 0 0 0 16h96a8 8 0 0 0 0-16z"/><path d="m288 312h-64a8 8 0 0 0 0 16h64a8 8 0 0 0 0-16z"/><path d="m144 360h-64a8 8 0 0 0 0 16h64a8 8 0 0 0 0-16z"/><path d="m432 360h-64a8 8 0 0 0 0 16h64a8 8 0 0 0 0-16z"/><path d="m472 8h-432a32.03 32.03 0 0 0 -32 32v432a32.036 32.036 0 0 0 32 32h432a32.042 32.042 0 0 0 32-32v-432a32.036 32.036 0 0 0 -32-32zm16 464a16.021 16.021 0 0 1 -16 16h-432a16.021 16.021 0 0 1 -16-16v-400h464zm0-416h-464v-16a16.021 16.021 0 0 1 16-16h432a16.021 16.021 0 0 1 16 16z"/><path d="m448 152h-96a31.705 31.705 0 0 0 -16 4.31v-20.31a32.036 32.036 0 0 0 -32-32h-96a32.036 32.036 0 0 0 -32 32v20.31a31.705 31.705 0 0 0 -16-4.31h-96a32.036 32.036 0 0 0 -32 32v240a32.036 32.036 0 0 0 32 32h384a32.042 32.042 0 0 0 32-32v-240a32.042 32.042 0 0 0 -32-32zm-272 288h-112a16.021 16.021 0 0 1 -16-16v-128h128zm0-160h-128v-96a16.021 16.021 0 0 1 16-16h96a16.021 16.021 0 0 1 16 16zm144 160h-128v-32h128zm0-48h-128v-144h128zm0-160h-128v-96a16.021 16.021 0 0 1 16-16h96a16.021 16.021 0 0 1 16 16zm144 192a16.021 16.021 0 0 1 -16 16h-112v-144h128zm0-144h-128v-96a16.021 16.021 0 0 1 16-16h96a16.021 16.021 0 0 1 16 16z"/><circle cx="39" cy="40" r="8"/><circle cx="64" cy="40" r="8"/><circle cx="88" cy="40" r="8"/></g></g></svg>